<svg width="838" height="159" viewBox="0 0 838 159" fill="none" xmlns="http://www.w3.org/2000/svg">
<path d="M237.431 109.186C237.431 94.9607 224.547 91.7398 211.395 87.4452C200.659 83.9558 194.754 81.9428 194.754 77.514C194.754 73.4878 198.78 71.8774 204.819 71.8774C213.542 71.8774 217.837 75.7693 217.837 82.3454H235.149C235.149 69.9985 226.963 58.591 204.953 58.591C187.641 58.591 177.441 65.5697 177.441 77.1114C177.441 91.0687 190.862 94.5581 203.477 98.7184C214.348 102.208 220.118 103.416 220.118 108.918C220.118 113.615 216.092 115.36 208.443 115.36C196.498 115.36 191.667 110.529 191.667 102.745H174.354C174.354 118.581 184.42 128.646 208.04 128.646C230.05 128.646 237.431 120.057 237.431 109.186ZM245.945 93.6186C245.945 115.628 261.647 128.646 282.985 128.646C304.19 128.646 319.892 115.628 319.892 93.6186C319.892 71.6089 304.19 58.591 282.985 58.591C261.647 58.591 245.945 71.6089 245.945 93.6186ZM263.257 93.6186C263.257 81.2717 270.638 73.622 282.985 73.622C295.332 73.622 302.714 81.2717 302.714 93.6186C302.714 105.966 295.332 113.615 282.985 113.615C270.638 113.615 263.257 105.966 263.257 93.6186ZM368.886 43.6942H382.307V28.6632H370.765C350.769 28.6632 341.777 38.1918 341.777 54.4306V59.9331H328.088V74.9641H341.777V112.273H328.088V127.304H378.549V112.273H358.955V74.9641H378.549V59.9331H358.955V54.9675C358.955 46.9151 361.773 43.6942 368.886 43.6942ZM419.227 113.615V74.9641H440.834V59.9331H419.227V40.0707L401.914 45.4389V59.9331H386.347V74.9641H401.914V118.178C401.914 125.023 405.538 128.915 412.382 128.646L443.518 127.304V112.273L419.227 113.615ZM542.678 58.591C528.989 58.591 522.681 66.7775 519.997 78.856H516.776C514.898 67.046 509.261 58.591 496.78 58.591C483.091 58.591 476.649 66.7775 473.965 78.856H469.536L472.623 68.6564V59.9331H455.31V127.304H472.623V101.268C472.623 84.4927 477.454 73.622 489.667 73.622C498.793 73.622 501.209 78.3192 501.209 91.2029V127.304H518.521V101.268C518.521 84.4927 523.352 73.622 535.565 73.622C544.691 73.622 547.107 78.3192 547.107 91.2029V127.304H564.419V89.3241C564.419 72.4142 558.649 58.591 542.678 58.591ZM600.276 51.7465C607.121 51.7465 611.818 47.8546 611.818 41.5469C611.818 35.3735 607.121 31.3473 600.276 31.3473C593.298 31.3473 588.869 35.3735 588.869 41.5469C588.869 47.8546 593.298 51.7465 600.276 51.7465ZM574.643 127.304H629.265V112.273H610.208V68.6564C610.208 62.0804 606.718 58.1884 599.739 58.591L578.267 59.9331V74.9641L593.7 74.0246V112.273H574.643V127.304ZM678.098 73.622C688.834 73.622 693.263 78.5876 693.263 91.6056V127.304H710.441V89.0556C710.441 69.059 700.242 58.591 683.868 58.591C669.374 58.591 660.919 67.717 658.235 79.7955H653.806L656.893 69.4617V59.9331H639.581V127.304H656.893V100.463C656.893 81.8086 665.482 73.622 678.098 73.622ZM797.256 127.304V28.6632H779.944V66.3749L783.165 76.7088H778.602C775.381 67.046 768 58.591 751.761 58.591C732.301 58.591 721.43 74.1588 721.43 93.6186C721.43 113.078 732.301 128.646 751.761 128.646C768 128.646 775.381 120.191 778.602 110.663H783.165L779.944 120.862V127.304H797.256ZM779.944 93.6186C779.944 107.576 771.623 113.615 759.142 113.615C746.661 113.615 738.743 107.576 738.743 93.6186C738.743 79.6613 746.661 73.622 759.142 73.622C771.623 73.622 779.944 79.6613 779.944 93.6186Z" fill="#F4F3FC"/>
<path d="M63.9492 44.8672C64.9028 44.1492 65.6407 43.5941 66.2854 43.131C66.4992 42.9774 66.688 42.8447 66.8553 42.7298C67.0226 42.8447 67.2113 42.9774 67.4251 43.131C68.0699 43.5941 68.8077 44.1492 69.7613 44.8672L96.6267 65.0946C97.2726 65.5809 97.7634 65.9507 98.1804 66.2761C98.314 66.3804 98.4303 66.4726 98.5317 66.5543C98.536 66.6845 98.5397 66.8328 98.5426 67.0024C98.5518 67.5312 98.552 68.1457 98.552 68.9543V115.956C98.552 116.765 98.5518 117.379 98.5426 117.908C98.5397 118.078 98.536 118.226 98.5317 118.356C98.4303 118.438 98.314 118.53 98.1804 118.634C97.7634 118.96 97.2726 119.33 96.6267 119.816L69.7613 140.043C68.8077 140.761 68.0699 141.316 67.4251 141.779C67.2113 141.933 67.0226 142.066 66.8553 142.181C66.688 142.066 66.4992 141.933 66.2854 141.779C65.6407 141.316 64.9028 140.761 63.9492 140.043L37.0839 119.816C36.438 119.33 35.9472 118.96 35.5302 118.634C35.3965 118.53 35.2803 118.438 35.1789 118.356C35.1746 118.226 35.1709 118.078 35.1679 117.908C35.1588 117.379 35.1586 116.765 35.1586 115.956V68.9543C35.1586 68.1458 35.1588 67.5312 35.1679 67.0024C35.1709 66.8328 35.1746 66.6845 35.1789 66.5543C35.2803 66.4726 35.3965 66.3804 35.5302 66.2761C35.9472 65.9507 36.438 65.5809 37.0839 65.0946L63.9492 44.8672Z" stroke="#4C5CEF" stroke-width="16.1047"/>
<path d="M7 48.7285L33.0621 14.1137C34.9592 11.5941 35.9078 10.3343 37.2657 9.65687C38.6237 8.97947 40.2007 8.97947 43.3547 8.97947L90.3566 8.97947C93.5106 8.97947 95.0876 8.97947 96.4455 9.65687C97.8035 10.3343 98.752 11.5941 100.649 14.1137L126.711 48.7285" stroke="#4C5CEF" stroke-width="16.1047"/>
<g clip-path="url(#clip0_911_563)">
<path d="M824.848 2.00146C817.597 2.00146 811.696 7.89887 811.696 15.1523C811.696 22.4028 817.597 28.3032 824.848 28.3032C832.101 28.3032 838.001 22.4028 838.001 15.1523C838.001 7.89887 832.101 2.00146 824.848 2.00146ZM824.848 25.3732C819.212 25.3732 814.626 20.7882 814.626 15.1523C814.626 9.51406 819.212 4.92912 824.848 4.92912C830.485 4.92912 835.071 9.51414 835.071 15.1523C835.071 20.7882 830.485 25.3732 824.848 25.3732Z" fill="#F4F3FC"/>
<path d="M829.165 17.535C828.325 18.9767 826.763 19.8711 825.088 19.8711C822.488 19.8711 820.369 17.7533 820.369 15.1527C820.369 12.5499 822.488 10.4315 825.088 10.4315C826.763 10.4315 828.325 11.3291 829.165 12.768L829.274 12.956H832.443L832.253 12.4457C831.702 10.9845 830.734 9.74211 829.453 8.85534C828.168 7.96629 826.66 7.49463 825.088 7.49463C820.866 7.49463 817.433 10.931 817.433 15.1527C817.433 19.3746 820.866 22.8078 825.088 22.8078C826.66 22.8078 828.168 22.3377 829.453 21.4473C830.734 20.5603 831.702 19.3184 832.253 17.8571L832.443 17.3466H829.274L829.165 17.535Z" fill="#F4F3FC"/>
</g>
<defs>
<clipPath id="clip0_911_563">
<rect width="26.3043" height="26.3043" fill="white" transform="translate(811.695 2)"/>
</clipPath>
</defs>
</svg>
