<?xml version="1.0" encoding="UTF-8"?>
<!DOCTYPE svg PUBLIC "-//W3C//DTD SVG 1.1//EN" "http://www.w3.org/Graphics/SVG/1.1/DTD/svg11.dtd">
<!-- Creator: CorelDRAW -->
<svg xmlns="http://www.w3.org/2000/svg" xml:space="preserve" width="210mm" height="297mm" version="1.1" style="shape-rendering:geometricPrecision; text-rendering:geometricPrecision; image-rendering:optimizeQuality; fill-rule:evenodd; clip-rule:evenodd"
viewBox="0 0 21000 29700"
 xmlns:xlink="http://www.w3.org/1999/xlink"
 xmlns:xodm="http://www.corel.com/coreldraw/odm/2003">
 <defs>
  <style type="text/css">
   <![CDATA[
    .str0 {stroke:#4C5CEF;stroke-width:2000;stroke-miterlimit:22.9256}
    .fil0 {fill:none;fill-rule:nonzero}
   ]]>
  </style>
 </defs>
 <g id="Camada_x0020_1">
  <metadata id="CorelCorpID_0Corel-Layer"/>
  <path class="fil0 str0" d="M10016.45 9299.03c154.85,-116.54 274.65,-206.7 379.35,-281.88 34.74,-24.98 65.36,-46.52 92.55,-65.18 27.13,18.66 57.82,40.2 92.49,65.18 104.71,75.18 224.57,165.34 379.41,281.88l4362.48 3284.64c104.89,78.93 184.55,139.02 252.31,191.86 21.66,16.94 40.57,31.91 57.01,45.17 0.74,21.11 1.29,45.23 1.78,72.73 1.48,85.92 1.54,185.65 1.54,316.99l0 7632.33c0,131.34 -0.06,231.07 -1.54,316.93 -0.49,27.62 -1.04,51.68 -1.78,72.79 -16.44,13.26 -35.35,28.23 -57.01,45.11 -67.76,52.96 -147.42,113.05 -252.31,191.91l-4362.48 3284.58c-154.84,116.55 -274.7,206.71 -379.41,281.89 -34.67,24.98 -65.36,46.58 -92.49,65.24 -27.19,-18.66 -57.81,-40.26 -92.55,-65.24 -104.7,-75.18 -224.5,-165.34 -379.35,-281.89l-4362.48 -3284.58c-104.88,-78.86 -184.61,-138.95 -252.3,-191.91 -21.73,-16.88 -40.57,-31.85 -57.08,-45.11 -0.67,-21.11 -1.29,-45.17 -1.78,-72.79 -1.47,-85.86 -1.47,-185.59 -1.47,-316.93l0 -7632.33c0,-131.28 0,-231.07 1.47,-316.99 0.49,-27.5 1.11,-51.62 1.78,-72.73 16.51,-13.26 35.35,-28.23 57.08,-45.17 67.69,-52.84 147.42,-112.93 252.3,-191.86l4362.48 -3284.64z"/>
  <path class="fil0 str0" d="M768.84 9926.09l4232.06 -5620.88c308.03,-409.18 462.08,-613.74 682.59,-723.72 220.52,-110.04 476.57,-110.04 988.73,-110.04l7632.33 0c512.16,0 768.27,0 988.78,110.04 220.52,109.98 374.5,314.54 682.54,723.72l4232.06 5620.88"/>
 </g>
</svg>
